<svg xmlns="http://www.w3.org/2000/svg" height="24" viewBox="0 -960 960 960" width="24"><path id="icon_path_enabled" d="M440-800v-120h80v120h-80Zm0 760v-120h80v120h-80Zm360-400v-80h120v80H800Zm-760 0v-80h120v80H40Zm708-252-56-56 70-72 58 58-72 70ZM198-140l-58-58 72-70 56 56-70 72Zm564 0-70-72 56-56 72 70-58 58ZM212-692l-72-70 58-58 70 72-56 56Zm268 452q-100 0-170-70t-70-170q0-100 70-170t170-70q100 0 170 70t70 170q0 100-70 170t-170 70Z"/><path id="icon_path_disabled" d="m734-556-56-58 86-84 56 56-86 86ZM80-160v-80h800v80H80Zm360-520v-120h80v120h-80ZM226-558l-84-86 56-56 86 86-58 56Zm71 158h366q-23-54-72-87t-111-33q-62 0-111 33t-72 87Zm-97 80q0-117 81.5-198.5T480-600q117 0 198.5 81.5T760-320H200Zm280-80Z"/></svg>