<svg xmlns="http://www.w3.org/2000/svg" height="24" viewBox="0 -960 960 960" width="24"><path id="icon_path_enabled" d="M680-80q-83 0-141.5-58.5T480-280q0-83 58.5-141.5T680-480q83 0 141.5 58.5T880-280q0 83-58.5 141.5T680-80Zm88-114q5-5 2.5-12t-9.5-8q-26-5-48.5-19.5T676-272q-14-24-15.5-51t7.5-52q2-7-2.5-12.5T654-391q-67 12-91.5 76T582-196q35 44 92 45t94-43ZM370-80l-16-128q-13-5-24.5-12T307-235l-119 50L78-375l103-78q-1-7-1-13.5v-27q0-6.5 1-13.5L78-585l110-190 119 50q11-8 22.5-15t24.5-12l16-128h220l16 128q13 5 24.5 12t22.5 15l119-50 110 190-74 56q-30-15-62-23t-66-8q-20 0-38.5 3.5T604-548q-19-33-51.5-52.5T482-620q-58 0-99 41t-41 99q0 38 18.5 70t50.5 51q-6 20-8.5 41.5T400-275q1 56 22.5 106.5T484-80H370Z"/><path id="icon_path_disabled" d="M680-80q-83 0-141.5-58.5T480-280q0-83 58.5-141.5T680-480q83 0 141.5 58.5T880-280q0 83-58.5 141.5T680-80Zm88-114q5-5 2.5-12t-9.5-8q-26-5-48.5-19.5T676-272q-14-24-15.5-51t7.5-52q2-7-2.5-12.5T654-391q-67 12-91.5 76T582-196q35 44 92 45t94-43ZM480-480ZM370-80l-16-128q-13-5-24.5-12T307-235l-119 50L78-375l103-78q-1-7-1-13.5v-27q0-6.5 1-13.5L78-585l110-190 119 50q11-8 23-15t24-12l16-128h220l16 128q13 5 24.5 12t22.5 15l119-50 110 190-74 56q-22-11-45-18.5T714-558l63-48-39-68-99 42q-22-23-48.5-38.5T533-694l-13-106h-79l-14 106q-31 8-57.5 23.5T321-633l-99-41-39 68 86 64q-5 15-7 30t-2 32q0 16 2 31t7 30l-86 65 39 68 99-42q17 17 36.5 30.5T400-275q1 57 23.5 107T484-80H370Zm41-279q6-20 14.5-38.5T445-433q-11-8-17-20.5t-6-26.5q0-25 17.5-42.5T482-540q14 0 27 6.5t21 17.5q17-11 35-19.5t38-13.5q-18-32-50-51.5T482-620q-59 0-99.5 41T342-480q0 38 18.5 70.5T411-359Z"/></svg>